<svg width="217" height="55" viewBox="0 0 217 55" fill="none" xmlns="http://www.w3.org/2000/svg">
<path d="M153.102 25.3907C153.002 25.3907 151.997 25.265 151.594 25.0891C151.243 24.9383 150.237 24.3603 150.589 23.8577C150.69 23.7069 150.891 23.6064 151.092 23.5561C151.896 23.3048 152.751 23.3299 153.58 23.4556C153.655 23.4556 153.731 23.4807 153.781 23.531C153.831 23.5812 153.856 23.6566 153.881 23.732C153.932 23.9582 154.007 24.2095 154.007 24.4608C153.957 24.9886 153.63 25.3907 153.102 25.3907Z" fill="black"/>
<path d="M216.886 31.4222C216.861 30.9698 216.685 30.6934 216.509 30.2913C216.358 29.9394 216.484 29.8892 216.584 29.7384C216.836 29.286 216.509 28.6577 216.434 28.2054C216.383 27.8284 216.258 27.5771 215.881 27.4263C215.755 27.376 215.68 27.376 215.604 27.376C215.604 27.376 215.604 27.376 215.579 27.376C215.529 27.4011 215.479 27.5519 215.428 27.6525C215.353 27.8284 215.277 28.0294 215.127 28.2305L215.026 28.3561H214.85C214.272 28.3561 213.719 28.2054 213.141 28.2807C212.588 28.3561 212.036 28.4818 211.483 28.6326C209.573 29.1352 207.788 30.0651 206.255 31.3216C205.753 31.7238 205.275 32.2013 204.873 32.729C204.546 33.1562 204.37 33.8097 203.893 34.1364C203.642 34.3123 203.34 34.3877 202.913 34.3877C202.561 34.3877 202.209 34.3374 201.882 34.2872C201.757 34.262 201.631 34.262 201.505 34.2369C199.721 34.061 198.012 33.5081 196.278 32.5531C195.876 32.3269 195.499 32.1007 195.122 31.8494C194.217 31.2714 193.363 30.7436 192.257 30.4923C191.855 30.4169 191.478 30.3667 191.076 30.3667C190.02 30.3918 188.99 30.7688 187.96 31.5227C187.934 31.5478 187.809 31.6735 187.708 31.774C187.231 32.2515 186.929 32.5531 186.628 32.5782H186.603H186.577C186.326 32.528 186.326 32.2264 186.326 32.0253C186.326 31.8997 186.326 31.774 186.326 31.6484C186.326 31.5227 186.326 31.3719 186.301 31.2463C186.276 31.0201 186.226 30.8442 186.024 30.7185C185.874 30.618 185.673 30.618 185.497 30.618C185.396 30.618 185.271 30.618 185.145 30.6431C184.718 30.6934 184.316 30.819 184.039 31.0452C183.763 31.2714 183.612 31.5478 183.461 31.8494C183.386 32.0253 183.285 32.2264 183.16 32.4274C182.858 32.8798 182.506 33.3322 182.179 33.7594C180.244 36.2223 177.982 37.8056 175.092 38.6852C172.83 39.3888 170.895 39.7407 169.186 39.7658C167.829 39.791 166.598 39.5899 165.542 39.2129C164.562 38.836 163.909 38.4339 163.482 37.9564C163.255 37.6799 163.054 37.4286 163.13 37.1521C163.205 36.8757 163.507 36.75 163.859 36.6495C164.06 36.5741 164.261 36.5239 164.487 36.4485C165.517 36.0966 166.573 35.7699 167.452 35.217L167.477 35.1919C168.357 34.6641 169.538 33.9353 169.89 33.0557C170.091 32.5531 170.217 31.9248 169.991 31.397C169.815 30.9949 169.488 30.7939 169.111 30.5928C168.608 30.3415 168.106 30.0902 167.553 29.9646C167.126 29.864 166.698 29.8138 166.321 29.8389C164.587 29.864 163.004 31.3217 161.898 32.528C161.245 33.2316 160.793 34.3123 160.013 34.8652C159.586 35.1668 159.109 35.4181 158.656 35.6694C158.455 35.7699 158.254 35.8704 158.053 35.9961C156.671 36.7752 155.213 37.4035 153.58 37.9564C153.354 38.0317 153.102 38.1071 152.876 38.2077C151.821 38.5846 150.715 38.9867 149.508 38.9867C149.307 38.9867 149.081 38.9867 148.88 38.9616C147.95 38.8611 147.322 38.5344 147.02 37.9564C146.317 36.6244 147.573 34.4882 148.755 32.7541C148.83 32.6536 148.905 32.5531 149.006 32.4274C149.307 32.0253 149.735 31.4724 149.634 31.0955C149.584 30.9195 149.433 30.7939 149.157 30.6431C148.956 30.5426 148.704 30.4923 148.453 30.4923C147.749 30.4923 146.995 30.8944 146.744 31.3468C146.618 31.573 146.618 31.8494 146.518 32.0756C146.392 32.3772 146.216 32.6536 146.04 32.9301C145.689 33.483 145.261 34.0107 144.784 34.438C144.005 35.1668 143.125 35.8453 142.271 36.5239L141.743 36.926C140.788 37.6799 139.682 38.4087 138.174 39.2883L137.923 39.4391C137.345 39.7909 136.691 40.1679 136.038 40.3187C135.912 40.3438 135.787 40.369 135.661 40.369C135.083 40.369 134.731 40.0674 134.379 39.7658L134.279 39.6904C133.349 38.8862 132.645 37.9312 131.967 37.0014C130.987 35.6694 130.057 34.4128 128.574 33.5835C128.021 33.2819 127.368 33.0306 126.664 32.8798C126.614 32.8798 126.538 32.8547 126.413 32.8547C125.734 32.7793 125.232 32.7039 125.106 32.352C125.005 32.0253 125.181 31.8243 127.644 30.6934C127.82 30.618 127.946 30.5677 127.971 30.5426C128.524 30.241 129.102 29.9143 129.63 29.6127C130.383 29.1855 131.163 28.7331 131.967 28.3561C132.293 28.2054 132.62 28.0043 132.947 27.8284C134.053 27.2001 135.209 26.7226 136.34 26.1194C137.295 25.5917 138.3 25.2147 139.28 24.7372C139.506 24.6367 139.732 24.5362 140.009 24.4356C140.914 24.0838 142.019 23.6314 141.592 23.3047C141.366 23.1288 141.115 22.978 141.064 22.9529C140.788 22.8021 140.562 22.7267 140.336 22.7267C140.185 22.7267 140.034 22.7518 139.833 22.8021C139.104 23.0031 138.476 23.4555 137.822 23.8074C137.144 24.1843 136.415 24.511 135.736 24.8629C134.58 25.4409 133.45 26.044 132.319 26.6472C131.816 26.9236 131.288 27.2001 130.786 27.4514C128.976 28.4064 127.016 29.3865 124.452 30.6431C123.925 30.8944 123.397 31.1206 122.869 31.3468C122.341 31.573 121.814 31.8243 121.286 32.0756C121.236 32.1007 121.16 32.151 121.085 32.1761C120.632 32.4023 119.929 32.7793 119.426 32.7793C118.974 32.7793 118.697 32.528 118.672 32.1259C118.622 31.4473 119.049 30.9698 119.275 30.3918C119.527 29.7132 119.803 29.0598 120.054 28.3813C120.582 27.0493 121.11 25.7425 121.663 24.4356C122.291 22.9277 122.945 21.4199 123.648 19.912C124.277 18.5297 124.955 17.1224 125.96 15.9412C126.086 15.7904 126.212 15.5894 126.136 15.3883C126.061 15.2124 125.81 15.0365 125.433 14.9359C125.257 14.8857 125.081 14.8606 124.905 14.8857C124.402 14.8857 123.975 15.1119 123.724 15.514C122.945 16.6951 122.316 17.9769 121.688 19.2083C120.255 22.0984 118.446 24.8126 116.41 27.3509C113.822 30.5928 111.133 33.9353 106.534 35.6694C103.694 36.75 100.728 37.3783 97.7126 36.75C97.2854 36.6495 96.8581 36.2977 96.5314 35.9961C96.255 35.7448 96.0288 35.3427 95.6769 35.2422C95.3 35.1416 94.7973 35.3929 94.5209 35.0662C94.3701 34.8652 94.3198 34.4631 94.2444 34.2118C94.1691 33.9605 93.5408 33.8348 93.2895 33.8348C93.1387 33.8348 92.9879 33.8599 92.8371 33.8599C92.6863 33.8599 92.5606 33.8851 92.435 33.8851C91.8067 33.8851 91.2035 33.8097 90.6004 33.7343C90.148 33.684 89.6705 33.6086 89.2182 33.5835C89.0925 33.5835 88.9668 33.5835 88.8161 33.5835C87.0066 33.6086 85.3228 34.3877 83.6892 35.1416C83.3877 35.2924 83.0861 35.4181 82.7845 35.5437C82.5081 35.6694 82.2568 35.795 81.9803 35.8956C80.2211 36.6998 78.3865 37.5291 76.2252 37.5794C76.1498 37.5794 76.0744 37.5794 75.999 37.5794C74.9938 37.5794 74.2649 37.3281 73.511 37.0516C73.2597 36.9511 72.9832 36.8757 72.7068 36.7752C71.8523 36.5239 70.7968 36.5993 69.9172 36.6495C69.0125 36.6998 68.0575 36.8506 67.2533 37.3029C66.3234 37.8558 65.5443 38.5846 64.7904 39.2883L64.5139 39.5648C63.5841 40.4192 62.7045 41.3742 61.8752 42.279C61.1212 43.1083 60.317 43.9628 59.4877 44.767C57.5023 46.6518 55.8185 48.2351 53.9336 49.743C52.4509 50.9242 50.2142 52.5075 47.8015 52.7336C47.6759 52.7336 47.5502 52.7588 47.4246 52.7588C45.0371 52.809 42.8004 51.1001 41.6192 49.366C40.4129 47.632 39.7846 45.722 39.6087 43.3847C39.4076 40.9219 39.3322 38.836 39.5333 36.6998C39.6338 35.4935 39.659 34.2872 39.86 33.106C40.0862 31.9248 40.4129 30.7436 40.7396 29.5876C41.2171 27.8786 41.8203 26.1194 43.1522 24.8629C43.5543 24.4859 43.9816 24.1843 44.3837 23.8827C45.0873 23.3801 45.7156 22.7267 46.369 22.1738C48.0026 20.7664 49.5859 19.334 51.0435 17.7255C53.808 14.6846 56.1703 11.317 57.6782 7.47191C58.0552 6.51691 59.4625 2.69693 59.161 1.74194C58.9096 0.108395 57.5274 0.108395 57.2761 0.158658C55.8939 0.435104 54.8886 1.49062 53.9336 2.44562C52.9535 3.42575 52.0488 4.48127 51.2194 5.61218C50.0382 7.19546 48.9827 8.87927 48.0529 10.6133C47.0476 12.4731 46.0423 14.3328 45.1125 16.2177C44.2329 17.8763 43.303 19.5099 42.5742 21.2188C42.0967 22.3246 41.5689 23.5309 40.7396 24.4608C39.1061 25.6419 37.4474 26.7729 36.5929 27.3509C33.3761 29.3614 30.3101 31.0452 27.244 32.4526C25.8618 33.0809 23.8764 33.9605 22.469 34.5133C19.5287 35.6694 16.9401 36.5993 13.9243 37.5291C11.3107 38.3333 8.82267 38.7857 6.08334 38.9616C4.19848 39.0621 2.38902 38.8108 0.529289 38.7103C0.479026 38.7103 0.453895 38.7103 0.403632 38.7103C0.102054 38.7103 -0.14926 38.836 -0.249786 39.0119C-0.350312 39.2129 -0.300049 39.4391 -0.0989973 39.6904C0.453895 40.3438 1.83612 40.3941 2.64033 40.4946C6.28439 40.8967 10.2803 40.1428 13.7736 39.1124C19.9559 37.3029 25.9874 34.9657 31.6923 31.9248C33.1499 31.1457 34.6829 30.2661 36.0903 29.3865C36.5175 29.1352 36.995 28.7582 37.4725 28.4818C38.4275 27.8284 39.5584 27.2252 39.5333 27.4514C39.6087 27.5268 39.282 28.1802 38.8547 29.4871C38.7794 29.864 38.6788 30.241 38.6286 30.4672C38.0757 32.5782 37.7992 34.7647 37.6736 36.926C37.5479 39.0873 37.4725 41.2234 37.6484 43.3847C37.8746 45.8728 38.4024 48.5367 39.9857 50.5472C40.3626 51.0247 40.815 51.5022 41.2925 51.9043C42.2978 52.7839 43.5041 53.4373 44.7858 53.8394C45.4643 54.0656 46.1931 54.1661 46.9722 54.141C49.5356 54.0907 51.2697 53.186 53.4058 51.9043C54.0341 51.5273 55.3661 50.4969 55.9441 49.9692C56.0949 49.8435 60.3924 46.1241 61.9505 44.4905C62.5537 43.8622 63.1317 43.2088 63.6846 42.5554C64.1118 42.0528 64.715 41.3742 65.4689 41.3491C65.6197 41.3491 65.5695 41.324 65.7203 41.4245C66.1475 41.7009 66.0721 42.3292 66.047 42.7062V42.7816C65.9464 43.7115 65.9967 44.4403 66.3988 45.1942C67.002 46.2749 67.9067 46.8278 69.0627 46.8026C71.7015 46.7524 75.0692 43.8622 75.8734 41.9774C76.0995 41.4748 76.1749 41.0475 76.1498 40.6705C76.1498 40.6203 76.0995 40.4946 76.0744 40.4192C75.9236 40.0171 75.7728 39.5899 76.0241 39.3386C76.3006 39.0621 76.9791 38.9867 78.0095 38.9365C78.3111 38.9113 78.6378 38.9114 78.7635 38.8862C80.8494 38.4087 82.7342 37.4035 84.5437 36.4485L84.8202 36.2977C85.75 35.795 86.9312 35.1919 88.1124 35.1668C88.2632 35.1668 88.3888 35.1668 88.5396 35.1919C88.9166 35.2422 89.1679 35.3678 89.2684 35.594C89.5197 36.172 88.2883 37.4035 88.0118 37.881C87.5344 38.66 87.1574 39.5145 86.9815 40.4192C86.705 41.9271 87.2579 43.6863 88.6401 44.3397C89.2433 44.6413 89.9721 44.6916 90.6507 44.6162C92.5606 44.4403 94.3701 43.3596 95.4508 41.7763C95.9031 41.1229 96.2298 40.3941 96.4811 39.6402C96.7576 38.8862 96.833 38.3836 97.7628 38.4087C98.7932 38.4338 99.7985 38.5595 100.829 38.4841C102.839 38.3333 104.8 37.8056 106.659 37.0516C109.675 35.8704 112.289 34.3123 114.551 32.0505C116.31 30.2913 116.109 29.663 117.039 29.6378C117.164 29.6378 117.29 29.6881 117.391 29.7886C117.541 29.9646 117.516 30.241 117.441 30.4923C117.215 31.397 116.762 32.2766 116.385 33.0809C115.204 35.4683 112.364 41.6758 111.887 42.3292C111.535 42.8067 111.057 43.5355 111.183 44.1638C111.233 44.4403 111.51 44.5659 111.987 44.5659C112.515 44.5659 113.118 44.3397 113.369 44.1638C113.872 43.7868 114.174 43.058 114.425 42.4046C114.5 42.2036 114.601 42.0025 114.676 41.8015C115.028 41.0224 115.38 40.2182 115.707 39.414C116.109 38.4338 116.536 37.4035 117.014 36.4485C117.466 35.5186 118.446 35.016 119.376 34.5887C120.18 34.2118 121.06 34.1866 121.914 34.1615C122.165 34.1615 122.417 34.1364 122.668 34.1364C122.844 34.1364 123.02 34.1112 123.171 34.1112C125.684 34.061 127.745 34.8903 129.001 36.3982C129.479 36.9762 129.931 37.6045 130.383 38.1825C131.037 39.0621 131.715 39.992 132.495 40.8213C133.274 41.6758 134.002 42.0528 134.882 42.0528H134.983C135.862 42.0276 136.792 41.7763 137.747 41.2988C138.878 40.7459 139.984 40.0423 141.014 39.2883C141.743 38.7606 142.371 38.1574 143.025 37.5542C143.276 37.3029 143.477 37.127 143.779 37.127C144.181 37.127 144.407 37.504 144.482 37.6799C144.583 37.8558 144.633 38.082 144.683 38.2831C144.734 38.459 144.759 38.6349 144.834 38.7606C144.985 39.0621 145.186 39.3888 145.513 39.6653C146.166 40.2433 147.222 40.5198 148.604 40.4946C149.433 40.4695 150.388 40.369 151.418 40.1428C153.102 39.7658 154.761 39.037 156.294 38.3333C156.998 38.0066 157.701 37.6548 158.38 37.3029C158.807 37.0768 159.36 36.5741 159.888 36.5741C160.591 36.5741 160.717 37.5291 160.994 38.0066C161.371 38.6098 161.873 39.1375 162.476 39.5396C163.18 39.992 163.984 40.2936 164.763 40.57C165.567 40.8465 166.397 41.0475 167.251 41.1229C168.709 41.2486 170.267 41.0727 171.725 40.8967C173.082 40.7208 174.389 40.3438 175.645 39.8663C177.254 39.2632 178.963 38.6098 180.37 37.6296C180.797 37.3281 181.174 36.8254 181.727 36.8254C181.878 36.8254 182.129 36.8757 182.33 37.1773C182.556 37.5542 182.431 37.9312 182.305 38.2579C182.179 38.6098 182.129 38.8611 182.305 39.0621C182.456 39.2381 182.858 39.4391 183.16 39.4391C183.185 39.4391 183.21 39.4391 183.21 39.4391C183.235 39.4391 183.285 39.3888 183.335 39.3637C183.436 39.3134 183.562 39.2381 183.712 39.2129C183.738 39.2129 183.788 39.2129 183.813 39.2129C183.939 39.2129 184.064 39.2381 184.165 39.2632C184.215 39.2883 184.29 39.2883 184.316 39.2883C184.793 39.2632 184.919 39.037 185.145 38.5344C185.195 38.4087 185.271 38.2831 185.321 38.1574C186.075 36.8003 187.306 34.8401 188.789 33.2819C189.015 33.0306 189.292 32.8295 189.543 32.5782C189.769 32.352 189.945 32.1259 190.221 31.9751C191.176 31.4222 192.282 32.2013 193.036 32.7541C193.187 32.8547 193.313 32.9552 193.438 33.0306C194.444 33.684 195.524 34.1615 196.655 34.5636C197.836 34.9908 198.992 35.3427 200.249 35.4935C200.877 35.5689 201.531 35.594 202.184 35.594C202.687 35.594 203.29 35.5437 203.717 35.8704C204.019 36.0966 204.094 36.4233 204.144 36.6746C204.169 36.75 204.169 36.8254 204.22 36.9008C204.32 37.2024 204.571 37.4789 204.798 37.7302C205.25 38.2328 205.878 38.5846 206.708 38.836C207.386 39.037 208.115 39.1375 208.894 39.1124C210.151 39.0873 211.458 38.7857 212.538 38.2328C214.951 36.8757 217.087 34.3626 216.886 31.4222ZM163.456 34.3123C163.482 34.2872 163.507 34.2369 163.532 34.1615C163.783 33.684 164.462 32.528 165.442 31.9248C165.643 31.7991 166.548 31.3216 167.201 31.3216C167.477 31.3216 167.704 31.397 167.854 31.5478C168.005 31.6986 168.081 31.8997 168.055 32.1761V32.2013V32.2264C167.829 33.2316 166.899 34.0861 165.467 34.5636C165.392 34.5887 165.316 34.6139 165.241 34.639C164.864 34.7898 164.411 34.9406 164.06 34.9657C164.009 34.9657 163.959 34.9657 163.909 34.9657C163.658 34.9406 163.456 34.8903 163.381 34.7144C163.306 34.5385 163.406 34.3877 163.456 34.3123ZM44.8612 20.2387C45.8915 18.1025 48.4801 12.9003 50.4403 10.0353C50.6163 9.75887 50.8424 9.43216 51.0686 9.05519C51.0686 9.03006 51.0938 9.03006 51.0938 9.00493C51.3702 8.52743 51.6969 8.07506 52.0236 7.64783C53.1545 5.98915 54.5116 4.17969 55.4666 3.35035C55.7431 3.1493 55.9693 3.02364 56.12 2.97338C56.2457 2.92312 56.3462 2.87285 56.4719 2.87285C57.1002 2.87285 57.075 3.52627 56.874 4.22995C56.7735 4.93363 56.2457 7.32112 53.8582 10.8144C53.7577 10.9903 53.632 11.1411 53.5315 11.2668C53.0791 11.9956 52.4257 12.9757 51.5964 14.1066C50.3398 15.8155 48.9576 17.4491 47.4748 18.957C47.0979 19.3591 46.6958 19.7612 46.2685 20.1633C45.59 20.9424 44.3837 21.7214 44.3837 21.4701C44.2831 21.3193 44.7606 20.4649 44.8612 20.2387ZM73.7372 42.1784C73.31 42.9575 72.556 43.7366 71.6764 44.2895C71.601 44.3397 71.5005 44.39 71.4251 44.4654C70.9727 44.767 70.4198 45.1691 69.8167 45.1691C69.7162 45.1691 69.6156 45.1691 69.5402 45.1439C68.3339 44.8926 68.2334 43.4099 68.1831 42.6308V42.4549C68.2083 41.1229 69.3392 38.6098 71.3246 38.5846C71.3497 38.5846 71.4 38.5846 71.4251 38.5846C72.3801 38.6098 73.2094 39.037 73.6869 39.7658C74.1142 40.4946 74.1393 41.4245 73.7372 42.1784ZM94.4706 39.5145C94.3701 39.8412 93.3146 42.7313 91.1784 43.0078C91.0779 43.0078 91.0025 43.0329 90.902 43.0329C90.3239 43.0329 89.8465 42.8319 89.5449 42.4046C88.8161 41.4245 89.1176 39.5396 89.4443 38.8108C90.3742 36.6746 91.5303 35.5689 92.9125 35.5186H92.9376C93.6413 35.5186 93.968 36.1972 94.1942 36.7249C94.2696 36.8757 94.3198 37.0014 94.3701 37.1019C94.923 37.9564 94.7219 38.7606 94.4706 39.5145ZM206.833 32.8044C207.663 31.7238 208.718 30.9949 209.849 30.241C210.628 29.7132 211.533 29.1101 212.664 29.085C212.789 29.085 212.915 29.085 213.041 29.1101C213.619 29.1603 214.197 29.5876 214.046 30.241C213.971 30.5677 213.719 30.8442 213.493 31.0955C211.834 32.7541 209.573 33.7594 207.235 33.8599C207.06 33.8599 206.884 33.8599 206.758 33.7594C206.431 33.483 206.632 33.0809 206.833 32.8044ZM213.744 34.6893L213.694 34.7647C212.413 36.549 210.829 37.504 209.145 37.5291C209.07 37.5291 208.995 37.5291 208.919 37.5291C208.844 37.5291 208.768 37.5542 208.693 37.5542C207.763 37.5794 206.934 36.9511 206.557 36.3479C206.406 36.0966 206.23 35.7699 206.381 35.4683C206.632 34.9908 207.763 34.9908 208.216 34.8903C209.472 34.6139 210.729 34.3626 211.834 33.6589C212.387 33.307 212.94 32.8044 213.644 32.7793C213.77 32.7793 213.895 32.8044 213.996 32.8547C214.147 32.9301 214.272 33.0306 214.322 33.1814C214.498 33.6337 214.121 34.1866 213.744 34.6893Z" fill="black"/>
</svg>
